<svg width="25" height="24" viewBox="0 0 25 24" fill="none" xmlns="http://www.w3.org/2000/svg">
<path d="M22.2959 20.2041L17.8437 15.75C19.1787 14.0104 19.8019 11.8282 19.587 9.64607C19.3722 7.4639 18.3353 5.44516 16.6867 3.99937C15.0382 2.55357 12.9014 1.78899 10.7098 1.86071C8.51829 1.93244 6.43607 2.8351 4.88558 4.38559C3.33509 5.93608 2.43243 8.0183 2.3607 10.2098C2.28898 12.4014 3.05356 14.5382 4.49936 16.1867C5.94515 17.8353 7.96389 18.8722 10.1461 19.087C12.3282 19.3019 14.5104 18.6787 16.25 17.3438L20.7059 21.8006C20.8106 21.9053 20.9348 21.9883 21.0715 22.0449C21.2083 22.1016 21.3548 22.1307 21.5028 22.1307C21.6508 22.1307 21.7973 22.1016 21.9341 22.0449C22.0708 21.9883 22.195 21.9053 22.2997 21.8006C22.4043 21.696 22.4873 21.5717 22.544 21.435C22.6006 21.2983 22.6298 21.1517 22.6298 21.0037C22.6298 20.8558 22.6006 20.7092 22.544 20.5725C22.4873 20.4358 22.4043 20.3115 22.2997 20.2069L22.2959 20.2041ZM4.62499 10.5C4.62499 9.23915 4.99888 8.0066 5.69938 6.95824C6.39987 5.90988 7.39551 5.09278 8.56039 4.61027C9.72527 4.12776 11.0071 4.00151 12.2437 4.2475C13.4803 4.49348 14.6162 5.10064 15.5078 5.9922C16.3994 6.88376 17.0065 8.01967 17.2525 9.2563C17.4985 10.4929 17.3722 11.7747 16.8897 12.9396C16.4072 14.1045 15.5901 15.1001 14.5418 15.8006C13.4934 16.5011 12.2608 16.875 11 16.875C9.30977 16.8733 7.68927 16.2011 6.49411 15.0059C5.29894 13.8107 4.62673 12.1902 4.62499 10.5Z" fill="black" fill-opacity="0.4"/>
</svg>
